<svg width="29" height="29" viewBox="0 0 29 29" fill="none" xmlns="http://www.w3.org/2000/svg">
<path d="M11.0059 1.46C10.8824 0.998866 10.8206 0.768298 10.6288 0.66621C10.437 0.564122 10.2216 0.638077 9.79087 0.785988C8.30983 1.29455 6.91878 2.04042 5.67296 2.99638C4.16228 4.15556 2.89472 5.60094 1.94263 7.25C0.990548 8.89906 0.372593 10.7195 0.124049 12.6074C-0.0809193 14.1643 -0.0313427 15.7419 0.268753 17.2788C0.356033 17.7258 0.399673 17.9493 0.583986 18.0643C0.768299 18.1794 0.998866 18.1176 1.46 17.9941L13.5341 14.7588C13.9894 14.6368 14.2171 14.5758 14.3206 14.3964C14.4242 14.2171 14.3632 13.9894 14.2412 13.5341L11.0059 1.46Z" fill="#0B08AB"/>
<path fill-rule="evenodd" clip-rule="evenodd" d="M4.84571 18.6343C4.32521 18.7738 4.06497 18.8435 3.96885 19.0648C3.87272 19.2862 3.99218 19.5104 4.23109 19.9587C4.816 21.0564 5.57665 22.0586 6.48865 22.923C8.11583 24.4653 10.1551 25.5029 12.3596 25.9105C14.5642 26.3181 16.8397 26.0781 18.9107 25.2195C20.9817 24.361 22.7596 22.9207 24.0292 21.0729C25.2988 19.2251 26.0057 17.0489 26.0645 14.8078C26.1232 12.5666 25.5313 10.3564 24.3602 8.44466C23.1892 6.53288 21.4892 5.00141 19.466 4.03554C17.4879 3.0912 15.2836 2.72708 13.1088 2.98378C13.0266 2.99347 12.9689 3.0688 12.9796 3.15083L15.8397 13.825L15.8423 13.8344C15.8547 13.8794 15.8964 14.0312 15.9158 14.1819C15.9426 14.3892 15.9592 14.7968 15.7137 15.2219C15.4683 15.647 15.107 15.8364 14.9141 15.917C14.7739 15.9755 14.6216 16.0152 14.5764 16.027L14.5669 16.0295L4.84571 18.6343Z" fill="#2A4157" fill-opacity="0.24"/>
</svg>
